<?xml version="1.0" standalone="no"?>
<!DOCTYPE svg PUBLIC "-//W3C//DTD SVG 20010904//EN"
 "http://www.w3.org/TR/2001/REC-SVG-20010904/DTD/svg10.dtd">
<svg version="1.0" xmlns="http://www.w3.org/2000/svg"
 width="1500.000000pt" height="1500.000000pt" viewBox="0 0 1500.000000 1500.000000"
 preserveAspectRatio="xMidYMid meet">
<metadata>
Created by potrace 1.14, written by Peter Selinger 2001-2017
</metadata>
<g transform="translate(0.000000,1500.000000) scale(0.100000,-0.100000)"
fill="#000000" stroke="none">
<path d="M8070 12026 c0 -14 -45 -42 -180 -114 -36 -19 -76 -42 -90 -52 -14
-9 -56 -35 -95 -57 -119 -67 -357 -209 -412 -244 -88 -57 -173 -108 -288 -171
-60 -34 -148 -85 -195 -114 -47 -28 -107 -64 -135 -80 -27 -15 -104 -61 -170
-102 -111 -70 -166 -102 -284 -170 -25 -14 -67 -38 -93 -53 -27 -16 -51 -29
-53 -29 -2 0 -35 -20 -73 -44 -38 -25 -88 -56 -113 -69 -47 -26 -232 -135
-289 -172 -19 -12 -89 -53 -155 -92 -317 -184 -396 -231 -471 -279 -44 -28
-98 -61 -120 -73 -21 -12 -46 -25 -54 -31 -15 -9 -228 -134 -340 -199 -30 -17
-84 -50 -119 -71 -34 -22 -65 -40 -67 -40 -2 0 -44 -24 -92 -54 -48 -29 -101
-61 -119 -70 -52 -26 -63 -43 -63 -97 0 -37 -4 -49 -15 -49 -13 0 -15 -265
-15 -2325 0 -1937 2 -2325 13 -2325 16 0 43 -73 33 -88 -9 -15 38 -67 52 -58
7 4 12 16 12 27 0 11 7 22 15 25 19 8 85 -15 91 -31 3 -7 26 -16 51 -20 33 -5
47 -12 50 -26 4 -14 11 -18 25 -13 11 3 41 -5 71 -20 29 -14 68 -32 87 -41 19
-9 58 -29 85 -45 28 -16 70 -39 95 -51 25 -12 47 -25 50 -30 3 -4 25 -15 50
-25 25 -10 49 -24 53 -31 4 -7 16 -13 25 -13 10 0 36 -9 57 -20 78 -40 221
-94 250 -94 19 0 62 19 115 51 109 66 243 136 300 159 25 10 58 28 73 41 16
13 33 21 38 17 11 -6 12 -38 2 -48 -10 -9 -4 -620 6 -667 7 -35 43 -59 142
-99 19 -7 41 -19 49 -25 8 -7 32 -18 53 -25 21 -6 41 -18 44 -26 3 -8 11 -14
19 -14 18 0 84 -32 84 -41 0 -3 20 -12 45 -19 24 -7 50 -19 56 -26 6 -8 17
-14 24 -14 7 0 30 -12 51 -26 21 -15 58 -33 82 -41 23 -8 42 -21 42 -29 0 -8
13 -17 30 -20 30 -7 64 -34 41 -34 -7 0 -9 -5 -6 -10 3 -6 30 -10 59 -10 37 0
61 -6 77 -19 13 -10 42 -22 65 -25 22 -4 75 -22 117 -40 l77 -34 47 31 c27 17
91 55 143 85 172 100 243 142 415 247 94 57 204 123 245 146 92 51 303 174
350 205 231 147 684 408 780 448 36 16 72 32 80 37 42 26 32 28 235 -62 124
-55 162 -61 170 -26 2 12 6 94 7 183 2 115 7 166 16 177 18 21 148 96 298 171
67 34 129 68 138 75 9 7 22 11 31 8 11 -5 12 -12 4 -36 -6 -16 -17 -35 -25
-42 -16 -13 -19 -50 -4 -65 19 -19 30 -201 30 -505 0 -186 4 -318 10 -336 8
-20 25 -37 54 -52 24 -12 50 -28 57 -37 7 -8 28 -22 47 -30 23 -9 32 -19 28
-29 -4 -11 2 -15 22 -15 15 0 34 -5 42 -10 13 -9 12 -12 -5 -26 -17 -13 -18
-16 -5 -24 8 -6 29 -7 45 -3 42 9 65 6 84 -10 9 -8 27 -18 41 -22 14 -4 41
-17 60 -30 19 -12 47 -29 61 -36 80 -42 130 -71 184 -108 33 -23 65 -41 71
-41 6 0 17 -6 23 -13 6 -8 30 -19 53 -26 24 -7 48 -17 53 -21 6 -4 28 -13 50
-20 22 -7 69 -28 103 -46 66 -36 102 -38 102 -6 2 284 -1 7036 -2 7037 -2 1
-30 19 -63 41 -69 46 -78 51 -165 101 -36 20 -105 61 -153 90 -48 29 -90 53
-93 53 -4 0 -50 27 -104 59 -54 32 -117 68 -141 80 -24 12 -66 35 -94 52 -64
40 -109 66 -165 95 -25 12 -60 34 -79 48 -41 31 -83 33 -120 7 -14 -11 -47
-30 -71 -44 -25 -13 -82 -46 -128 -73 -45 -27 -95 -56 -111 -65 -15 -8 -50
-29 -78 -47 -55 -35 -88 -41 -97 -16 -3 9 -6 141 -6 294 0 312 5 289 -78 337
-26 15 -60 37 -77 49 -16 12 -57 36 -90 53 -67 35 -86 46 -132 78 -17 13 -73
44 -123 71 -155 81 -165 86 -196 107 -16 12 -54 34 -84 49 -30 16 -62 34 -70
41 -8 6 -52 33 -97 60 -46 26 -83 54 -83 61 0 11 -22 14 -95 14 -75 0 -95 -3
-95 -14z m47 -1371 c3 -9 -2 -25 -12 -35 -16 -18 -17 -27 -7 -92 6 -40 12
-155 14 -254 l3 -181 -30 -25 c-47 -40 -487 -323 -540 -348 -6 -3 -57 -34
-113 -70 -56 -36 -118 -74 -137 -85 -19 -11 -60 -35 -92 -54 -81 -47 -331
-199 -370 -225 -18 -11 -54 -34 -80 -50 -26 -16 -64 -39 -83 -51 -19 -12 -116
-70 -215 -129 -99 -59 -211 -127 -250 -151 -38 -24 -73 -44 -78 -45 -4 0 -33
-17 -65 -38 -31 -22 -124 -81 -205 -132 -86 -54 -152 -102 -157 -114 -4 -12
-15 -72 -24 -135 -15 -101 -17 -244 -16 -1295 l1 -1181 -48 -38 c-48 -37 -275
-183 -323 -207 -14 -7 -35 -21 -47 -32 -12 -11 -31 -18 -45 -16 l-23 3 -3
1627 -2 1628 27 29 c26 27 335 216 688 421 83 48 168 97 190 110 22 13 90 53
150 90 240 145 273 165 355 213 47 27 99 57 115 67 17 9 65 38 108 64 43 25
80 46 82 46 2 0 41 23 87 52 203 126 307 189 363 219 33 17 152 87 265 154
226 135 373 215 395 215 8 0 29 13 47 30 36 32 65 38 75 15z m1643 -1038 c-22
-29 -22 -29 -4 -81 18 -49 19 -117 22 -1561 2 -830 5 -1522 8 -1536 5 -22 -3
-32 -68 -80 -78 -59 -168 -118 -208 -139 -14 -7 -58 -35 -99 -62 -44 -29 -82
-48 -95 -46 l-21 3 -3 1628 c-2 1432 0 1633 13 1660 17 36 133 110 345 221
116 60 125 64 128 44 2 -11 -6 -34 -18 -51z m-1647 -979 c-3 -18 -10 -39 -15
-45 -7 -8 -6 -35 1 -75 6 -39 11 -264 12 -583 l1 -519 -63 -48 c-35 -26 -91
-64 -124 -84 -33 -20 -76 -47 -95 -59 -19 -12 -91 -55 -160 -95 -135 -79 -334
-199 -402 -242 -24 -15 -74 -44 -113 -66 -151 -84 -170 -96 -223 -133 -58 -40
-79 -41 -88 -3 -3 12 -4 295 -2 627 3 688 -6 620 96 676 61 33 78 43 228 136
54 33 132 81 173 107 168 103 235 144 284 175 90 56 300 171 347 189 25 10 60
30 78 46 18 15 41 28 52 28 17 0 19 -5 13 -32z m7 -2633 c0 -9 -10 -34 -21
-57 -18 -36 -19 -45 -8 -62 13 -21 32 -435 21 -464 -3 -7 -19 -23 -37 -35
-181 -121 -298 -198 -340 -221 -27 -16 -88 -52 -135 -81 -47 -29 -130 -78
-185 -110 -55 -32 -125 -74 -155 -92 -30 -19 -95 -57 -145 -85 -99 -56 -118
-68 -190 -115 -57 -39 -61 -39 -75 -13 -17 32 -8 604 10 625 8 9 45 34 84 56
39 22 130 76 201 121 139 86 280 169 385 226 36 19 72 40 80 47 31 24 210 125
323 182 50 26 105 57 120 70 33 26 67 30 67 8z"/>
<path d="M8031 10544 c0 -11 3 -14 6 -6 3 7 2 16 -1 19 -3 4 -6 -2 -5 -13z"/>
<path d="M4325 4600 c3 -5 15 -10 26 -10 10 0 19 5 19 10 0 6 -12 10 -26 10
-14 0 -23 -4 -19 -10z"/>
<path d="M4425 4550 c3 -5 10 -10 16 -10 5 0 9 5 9 10 0 6 -7 10 -16 10 -8 0
-12 -4 -9 -10z"/>
<path d="M5602 4443 c5 -25 28 -28 28 -4 0 12 -6 21 -16 21 -9 0 -14 -7 -12
-17z"/>
<path d="M10104 3745 c13 -10 24 -11 37 -4 28 14 23 19 -18 19 -35 -1 -37 -2
-19 -15z"/>
<path d="M10378 3593 c7 -3 16 -2 19 1 4 3 -2 6 -13 5 -11 0 -14 -3 -6 -6z"/>
<path d="M10445 3540 c4 -6 11 -8 16 -5 14 9 11 15 -7 15 -8 0 -12 -5 -9 -10z"/>
</g>
</svg>
